<?xml version="1.0" encoding="utf-8"?>
<!-- Generator: Adobe Illustrator 24.1.1, SVG Export Plug-In . SVG Version: 6.00 Build 0)  -->
<svg version="1.1" id="レイヤー_1" xmlns="http://www.w3.org/2000/svg" xmlns:xlink="http://www.w3.org/1999/xlink" x="0px"
	 y="0px" viewBox="0 0 595.3 841.9" style="enable-background:new 0 0 595.3 841.9;" xml:space="preserve">
<style type="text/css">
	.st0{font-family:'KozGoPr6N-Regular-90ms-RKSJ-H';}
	.st1{font-size:14.1732px;}
	.st2{fill:#E5E5E5;}
	
		.st3{fill:none;stroke:#000000;stroke-width:0.5669;stroke-linejoin:bevel;stroke-miterlimit:11.3386;stroke-dasharray:1.4173,2.8346;}
	.st4{fill:none;stroke:#000000;stroke-width:0.8504;stroke-linejoin:bevel;stroke-miterlimit:11.3386;}
	
		.st5{fill:none;stroke:#000000;stroke-width:0.5669;stroke-linejoin:bevel;stroke-miterlimit:11.3386;stroke-dasharray:2.8346,1.4173,0.5669,1.4173;}
</style>
<g>
	<g>
		<text transform="matrix(1 0 0 1 131.6213 784.1845)" class="st0 st1">左耳</text>
		<path class="st2" d="M128.4,748.2l-14.2,8.2L92,744l-61.9-52.3L128.4,748.2z M293.9,629.9l-4.1,15.8l-54.5,15.1l-42.9-2.8
			L293.9,629.9z M155.3,702.1l-59.9-5l-35.2-11.7l-24.2-23L155.3,702.1z M36.1,662.4l33-26.5l85.3-29.7l28,5.2L36.1,662.4z
			 M30.1,582.9l67.8-25.1l24.3-3.8l43.6,7.5L30.1,582.9z M245.6,756.4l-9.2,13.6l-100.9-7.1l-7.2-14.7L245.6,756.4z"/>
		<path class="st3" d="M165.8,561.5l96-31.6 M261.8,529.9l-122.6-23.5 M139.2,506.4l26.6,55.1 M165.8,561.5L278.5,576 M182.4,611.4
			l-16.6-49.9 M165.8,561.5L30.1,582.9 M182.4,611.4l96-35.5 M182.4,611.4l-146.3,51 M36.1,662.4l156.3-4.4 M192.3,658l-9.9-46.6
			 M293.9,629.9l-111.5-18.5 M192.3,658l101.6-28.1 M268.4,717.8L192.3,658 M192.3,658l-37,44.1 M155.3,702.1l113,15.7 M36.1,662.4
			l119.3,39.7 M155.3,702.1l90.3,54.4 M155.3,702.1l-27,46.2 M128.4,748.2l117.2,8.2 M30.1,691.7l98.3,56.6"/>
		<path class="st4" d="M289.7,645.8l-54.5,15.1l-42.9-2.8l105.1,7l-29.1,52.8l-22.8,38.7l-9.2,13.6l-100.9-7.1l-7.2-14.7l-14.2,8.2
			L92,744l-62.1-52.1l125.3,10.4l-59.9-5l-35.2-11.7l-24.2-23l33-26.5l85.3-29.7l28,5.2L30.1,582.9l67.8-25.1l24.3-3.8l43.6,7.5
			L30.3,538.4l108.8-32l112-35.6l10.6,59.1l16.7,46.1l15.4,54L289.7,645.8z"/>
	</g>
	<g>
		<text transform="matrix(1 0 0 1 171.9757 452.0947)" class="st0 st1">顔</text>
		<path class="st2" d="M283.9,314l16.4,0.5l37.8,70.5l-5,20.7L283.9,314z M333.1,405.7l10.1,12.9l-21.7,53.9l-16.2,2.3L333.1,405.7z
			 M25.9,405.5l-5-20.7l37.9-70.5l16.4-0.5L25.9,405.5z M53.5,474.6l-16.2-2.3l-21.5-54l10.1-12.9L53.5,474.6z"/>
		<path class="st3" d="M246.2,412.2l37.7-98.2 M179.5,337.8l66.7,74.4 M179.5,337.8l-0.1,80.4 M246.2,412.2l86.9-6.5 M333.1,405.7
			L284,314 M305.3,474.8l27.8-69.1 M179.5,337.8l-66.8,74.3 M75.2,313.8l37.6,98.3 M75.2,313.8l-49.3,91.6 M25.9,405.5l86.9,6.6
			 M25.9,405.5l27.6,69.1"/>
		<path class="st4" d="M246.2,412.2l-66.7,5.9l-66.7-6l-59.3,62.5l-16.2-2.3l-21.5-54l10.1-12.9l-5-20.7l37.9-70.4l16.4-0.5
			l104.3,24L283.9,314l16.4,0.5l37.8,70.5l-5,20.7l10.1,12.9l-21.7,53.9l-16.2,2.3L246.2,412.2z"/>
	</g>
</g>
<g>
	<text transform="matrix(1 0 0 1 528.5139 232.5172)" class="st0 st1">頭頂部</text>
	<path class="st2" d="M559.7,313.8l-4.3,15.8l-40.9,10.8l-38-4.6L559.7,313.8z M491.5,231.3l16.1-2.7l57.8,69.9l-5.7,15.3
		L491.5,231.3z M372.5,342.9l-16.2-2l-23.5-55.5l9.9-13L372.5,342.9z M562,346.2l7.7,14.4L522,437.7l-16.4-0.5L562,346.2z
		 M412.7,421.8l-9.3,13.5l-43.8-3.6l-7-14.8L412.7,421.8z M352.6,416.9L341,405.3l15.6-58.2l15.8-4.2L352.6,416.9z M423.8,476.8
		l-15.5-5.2l-7.9-39l12.3-10.8L423.8,476.8z M342.7,272.4l4.9-15.6l42.9-9.5l11.1,12.1L342.7,272.4z M401.5,259.3l-13.6-9.1
		l2.5-39.7l14.7-7.3L401.5,259.3z"/>
	<path class="st3" d="M372.5,342.9l104.1-7.1 M476.5,335.8l-75-76.5 M401.5,259.3l-29.1,83.6 M372.5,342.9l40.2,78.8 M412.7,421.8
		l63.8-86 M372.5,342.9l-19.8,74 M342.7,272.4l29.7,70.6 M423.8,476.8l81.8-39.6 M505.6,437.2l-93-15.5 M505.6,437.2l-29.1-101.4
		 M505.6,437.2l56.3-91 M476.5,335.8l15-104.5 M491.5,231.3l-90,28 M491.5,231.3l-86.4-28 M476.5,335.8l83.2-22 M559.7,313.8
		l-68.2-82.5"/>
	<path class="st5" d="M352.6,416.9l60.1,4.9 M401.5,259.3l-58.8,13.1 M412.7,421.8l11.2,55 M405.1,203.3l-3.6,56"/>
	<path class="st4" d="M341,405.3l15.6-58.2l15.8-4.2l-16.2-2l-23.4-55.5l9.9-13l4.9-15.6l40.5-9.5l13.4,12.1l-13.4-12.1l2.3-36.7
		l14.7-7.3l115.8-71.8l-29.4,99.8l16.1-2.7l57.8,69.9l-5.7,15.3l-4.3,15.8l-40.9,10.8l-38-4.6l85.5,10.4l7.7,14.4L522,437.7
		l-16.4-0.5l42.8,94.9l-124.5-55.3l-15.5-5.2l-7.9-36.6l12.3-13.2L400.5,435l-40.8-3.3l-7-14.8L341,405.3z"/>
</g>
<g>
	<text transform="matrix(1 0 0 1 509.2811 790.3023)" class="st0 st1">右耳</text>
	<path class="st2" d="M562.5,715.5l-65.3,52.1l-20.1,11l-14-8.5L562.5,715.5z M557.2,686.2l-24.6,22.5l-35.4,11l-60,3.8L557.2,686.2
		z M411.9,632.2l28.1-4.7l84.7,31.5l32.4,27.2L411.9,632.2z M429.6,582.6l43.8-6.6l23.8,4.3l67.6,26.5L429.6,582.6z M401,678.6
		l-43,2l-54.2-16.2l-3.8-15.9L401,678.6z M463.1,770.1l-7.5,14.6l-101,5l-8.9-13.8L463.1,770.1z"/>
	<path class="st3" d="M457.3,528.1l-27.7,54.5 M457.3,528.1l-123.1,21 M334.2,549l95.3,33.6 M316.6,594.8l113-12.1 M411.9,632.2
		l17.7-49.6 M316.6,594.8l95.3,37.4 M564.8,606.8l-135.2-24.2 M300.1,648.4L401,678.6 M401,678.6l10.9-46.4 M411.9,632.2
		l-111.8,16.2 M401,678.6l156.1,7.6 M557.2,686.2l-145.3-54 M323.8,736.8l77.3-58.2 M323.8,736.8l113.3-13.4 M437.1,723.4L401,678.6
		 M437.1,723.4l120.1-37.2 M345.7,775.9l91.4-52.5 M463.1,770.1l99.4-54.5 M437.1,723.4l26,46.7 M345.7,775.9l117.4-5.8"/>
	<path class="st4" d="M429.6,582.6l43.8-6.6l21.1,3.8l70.3,27l-152.9,25.4l28.1-4.7l84.7,31.5l32.4,27.2l-24.6,22.5l-35.4,11
		l-60,3.8l125.4-7.8l-65.3,51.9l-20.1,11l-14-8.5l-7.5,14.6l-101,5l-8.9-13.8l-22-39.1l-28-53.4l105.2-4.8l-43,2l-54.2-16.2
		l-3.8-15.9l16.5-53.7l17.6-45.7l11.8-58.8l111.5,37.8l108.1,34.2L429.6,582.6z"/>
</g>
<g>
	<text transform="matrix(1 0 0 1 369.9296 49.322)" class="st0 st1">鼻</text>
	<path class="st2" d="M272.8,262.7l6.8,14.9l-29.5,41.1l-16.3-1.6L272.8,262.7z M139.4,231.9l-15.8-4.2l-18.3-67.3l11.5-11.6
		L139.4,231.9z M233.7,317.1l-15-6.5l-6.2-52.5l13.1-9.8L233.7,317.1z M225.6,248.4l-15.4-5.5l-3.6-27.8l10.3-14.2L225.6,248.4z
		 M288.1,105.5l26.4-45.8l6.9-6.8l16.4,3.7L288.1,105.5z M337.8,56.6l15.2,6l10.8,72.7l-12.7,10.2L337.8,56.6z M232.5,49.3l7.5-14.5
		l23.2-1.1l59.7,11.4L232.5,49.3z M330.8,229.2v16.4L287,270.9l-14.2-8.2L330.8,229.2z M351.1,145.5l11.8,11.3l-16.4,67.7l-15.7,4.6
		L351.1,145.5z M216.8,200.9l11.8-11.3l20.6,5.9l14,18.8L216.8,200.9z M142,47.7l53.9-13.2l28.7,0.6l7.9,14.3L142,47.7z M127.4,59.6
		l16.3-4.2l7.1,6.6l27.7,45.1L127.4,59.6z M116.7,148.8l-13.1-9.8l8.7-73l15-6.4L116.7,148.8z"/>
	<path class="st3" d="M232.5,49.3l-54,57.8 M178.5,107.1l109.6-1.6 M288.1,105.5l-55.6-56.2 M178.5,107.1l55.8,68.5 M234.3,175.6
		l53.8-70 M116.7,148.8l89.8,66.3 M206.5,215.1l-28-108 M178.5,107.1l-61.8,41.7 M178.5,107.1l-51.1-47.5 M127.4,59.6l-10.7,89.2
		 M263.2,214.3l24.9-108.8 M351.1,145.5l-62.9-40 M263.2,214.3l87.9-68.8 M351.1,145.5l-13.2-88.9 M337.8,56.6l-49.7,48.9
		 M263.2,214.3l67.6,14.9 M225.6,248.4l47.2,14.3 M272.8,262.7l-9.6-48.4 M263.2,214.3l-37.6,34.1 M225.6,248.4l8.2,68.7
		 M263.2,214.3l-46.4-13.4 M216.8,200.9l8.8,47.5"/>
	<path class="st5" d="M232.5,49.3L142,47.6 M322.9,45.1l-90.4,4.2 M116.7,148.8l22.6,83.1 M330.8,229.2l20.3-83.7 M272.8,262.7
		l58-33.5 M233.7,317.1l39-54.4"/>
	<path class="st4" d="M195.9,34.5l28.7,0.5l7.9,14.3l7.5-14.5l23.2-1.1l59.7,11.4l-34.8,60.4l26.4-45.8l6.9-6.8l16.4,3.7l15.2,6
		l10.8,72.7l-12.7,10.2l11.8,11.3l-16.4,67.7l-15.7,4.6v16.4L287,270.8l-14.2-8.2l6.8,14.9l-29.5,41.1l-16.3-1.6l-15-6.5l-6.2-52.5
		l13.1-9.8l-15.4-5.5l-3.6-27.8l10.3-14.2l11.8-11.3l20.6,5.9l14,18.8l-28.9-38.7l-27.8,39.5l-67.3,17l-15.8-4.2l-18.3-67.3
		l11.5-11.6l-13.1-9.8l8.7-73l15-6.4l16.3-4.2l7.1,6.6l27.7,45.1L142,47.7L195.9,34.5z"/>
</g>
</svg>
