<?xml version="1.0" encoding="utf-8"?>
<!-- Generator: Adobe Illustrator 24.1.1, SVG Export Plug-In . SVG Version: 6.00 Build 0)  -->
<svg version="1.1" id="レイヤー_1" xmlns="http://www.w3.org/2000/svg" xmlns:xlink="http://www.w3.org/1999/xlink" x="0px"
	 y="0px" viewBox="0 0 595.3 841.9" style="enable-background:new 0 0 595.3 841.9;" xml:space="preserve">
<style type="text/css">
	.st0{font-family:'KozGoPr6N-Regular-90ms-RKSJ-H';}
	.st1{font-size:14.1732px;}
	.st2{fill:#E5E5E5;}
	
		.st3{fill:none;stroke:#000000;stroke-width:0.5669;stroke-linejoin:bevel;stroke-miterlimit:11.3386;stroke-dasharray:1.4173,2.8346;}
	
		.st4{fill:none;stroke:#000000;stroke-width:0.5669;stroke-linejoin:bevel;stroke-miterlimit:11.3386;stroke-dasharray:2.8346,1.4173,0.5669,1.4173;}
	.st5{fill:none;stroke:#000000;stroke-width:0.8504;stroke-linejoin:bevel;stroke-miterlimit:11.3386;}
</style>
<g>
	<text transform="matrix(1 0 0 1 111.8907 659.605)" class="st0 st1">後頭部</text>
	<path class="st2" d="M429.5,455.1l16,3.4l18.7,57.9l-11,12.1L429.5,455.1z M388.5,634.1l13.7,83.2l-12.4,7.4L388.5,634.1z
		 M389.9,724.6l-21.2-1.2l-79.1-79.6l4.3-15.8L389.9,724.6z M420.5,354.6l14.8,6.9l7.6,84.2l-13.4,9.4L420.5,354.6z M287.1,529.1
		l-5.7,15.4l-28.1,4.8l-10.5-12.6L287.1,529.1z M408.1,344l4.2,18.1l-2.3,3.1l-71.1,72.1L408.1,344z M178.6,132.8l16.2-2.3l55.3,71
		l-6.2,15.2L178.6,132.8z M57.4,194.8l12-7.9l0,0l68.9,48.5L57.4,194.8z M102.6,323.4l-16.1-3L49.3,214.5l8.1-19.7L102.6,323.4z
		 M294,365.7l95.9-32.7l3.8-0.7l14.4,11.7L294,365.7z M177,383.2l15.6-4.9l2.2,2l50.7,65.7L177,383.2z M157.6,423.6l-9.2-13.5
		l12.4-25.7l16.3-1.2L157.6,423.6z M313.4,583.1l-16.3-1.1L278,542.8l9.2-13.6L313.4,583.1z M293.8,628l-9.7-13.2l13-29.9l16.3-1.8
		L293.8,628z M188.8,372.4l-16.2,2.3l-27-34.3l6.1-15.2L188.8,372.4z M151.6,325.3l-8.7,13.8l-32.6-1.3l-7.6-14.5L151.6,325.3z
		 M451.3,547.1l16.4,1.2l39.8,80.5l-9.1,13.6L451.3,547.1z M261.5,223l15.7-4.6l44,42l-3.9,15.9L261.5,223z M317.3,276.4l14.3-8
		l72.5,43.5l-0.3,16.4L317.3,276.4z M225.4,295.8l14.2-60.5l5.6-11.2l16.3-1L225.4,295.8z M453.3,528.5l-8,14.3l-12.5,0.1L372,529.4
		L453.3,528.5z"/>
	<path class="st3" d="M338.9,437.3l69.2-93.3 M408.1,344L294,365.7 M294,365.7l44.9,71.5 M294,365.7L245.6,446 M245.6,446l93.3-8.7
		 M287.1,529.1l51.8-91.8 M245.6,446l41.5,83.1 M294,365.7l-105.2,6.7 M317.3,276.4l-91.9,19.5 M225.4,295.8l68.5,69.9 M294,365.7
		l23.4-89.4 M225.4,295.8l-36.7,76.6 M287.1,529.1l84.9,0.3 M372,529.4l-33.2-92.1 M372,529.4l57.5-74.3 M429.5,455.1l-90.6-17.8
		 M245.6,446l-88-22.3 M176.9,497.7l68.6-51.8 M242.9,536.7l2.7-90.7 M245.6,446L177,383.2 M138.3,235.4l87.1,60.4 M244,216.7
		l-105.6,18.7 M138.3,235.4l13.3,89.9 M151.6,325.3l73.8-29.5 M178.6,132.8l-40.3,102.6 M138.3,235.4l-35.7,88 M178.6,132.8
		L64.3,183.3 M178.6,132.8L62.3,108.9 M57.4,194.8l45.2,128.5 M138.3,235.4l-80.9-40.6 M372,529.4l-58.7,53.7 M313.4,583.1l75.2,51
		 M388.5,634.1L372,529.4 M388.5,634.1l62.8-87 M388.5,634.1l109.9,8.4 M293.8,628l94.7,6.1 M469.4,757.6l29.1-115.2 M498.4,642.4
		l-95.2,81 M389.9,724.6l-1.3-90.5 M293.8,628l96.1,96.6 M372,529.4l81.2-0.9 M261.5,223l-36.1,72.8"/>
	<path class="st4" d="M403.9,328.2l-86.6-51.9 M429.5,455.1l-9.1-100.5 M177,383.2l-19.5,40.4 M242.9,536.7l44.2-7.6 M244,216.7
		l-65.4-83.9 M102.6,323.4l49,1.9 M151.6,325.3l37.2,47.1 M498.4,642.4L451.3,547 M313.4,583.1L293.8,628 M287.1,529.1l26.3,54
		 M453.3,528.5l-23.8-73.4 M317.3,276.4L261.5,223"/>
	<path class="st5" d="M279.4,543.8l-26,5.5l-10.5-12.6l-65.9-39l-19.3-74.1l-9.2-13.5l12.4-25.7l16.3-1.2l15.6-4.9l2.2,2l50.7,65.7
		l-56.8-73.5l-16.2,2.3l-27-34.3l6.1-15.2l-8.7,13.8l-32.6-1.3l-7.6-14.5l-16.1-3L49.3,214.5l8.1-19.7l12-7.9l0,0l68.9,48.5
		l-74.1-52.1l-2-74.4l72-53.8l44.4,77.7l16.2-2.3l55.3,71l-6.2,15.2l-18.6,79.1l14.2-60.5l5.6-11.2l16.3-1l15.7-4.6l44,42l-3.9,15.9
		l14.3-8l72.5,43.5l-0.3,16.4L294,365.7l95.9-32.7l3.8-0.7l14.4,11.7l4.2,18.1l-2.3,3.1l-71.1,72.1l81.6-82.7l14.8,6.9l7.6,84.2
		l-13.4,9.4l16,3.4l18.7,57.9l-11,12.1l-8,14.3l-12.5,0.1L372,529.4l79.3,17.7l16.4,1.2l39.8,80.5l-9.1,13.6l50.6,73.7l-79.7,41.4
		l-66.1-34.2L388.5,634l13.7,83.2l-12.4,7.4l-21.2-1.2l-79.1-79.6l4.3-15.8l-9.7-13.2l13-29.9l16.3-1.8l-16.3-1.1L279.4,543.8
		l7.7-14.7L279.4,543.8z"/>
</g>
</svg>
